<svg id="Layer_1" data-name="Layer 1" xmlns="http://www.w3.org/2000/svg" width="132.6" height="52.82" viewBox="0 0 132.6 52.82">
  <path id="Path_25" data-name="Path 25" d="M665.617,23.749c-2.588-5.524-7.661-9.507-12.464-13.031-.1-.076-.281.775-.283.781a8.167,8.167,0,0,0-.147,1.629c.082,3.748.271,8.457.353,12.2,0,.144-.09,1.029.172.44a8.351,8.351,0,0,0,.288-2.2c-.063-2.861-.126-6.183-.188-9.264,3.946,2.912,7.846,6.073,10.545,10.217a16.768,16.768,0,0,1,2.665,6.942,12.833,12.833,0,0,1,.113,1.59c0,.275,0,.361-.016.618.009-.147-.009.1-.011.13-.007.068-.011.114-.014.144-.012.1-.025.2-.039.3a14.6,14.6,0,0,1-.908,3.1,13.484,13.484,0,0,1-7.546,7.451,14.029,14.029,0,0,1-9.367.354,9.846,9.846,0,0,1-6.76-7.232c-.135-.637-.36.417-.384.55a6.117,6.117,0,0,0-.115,2.217,10.131,10.131,0,0,0,6.1,7.376,13.947,13.947,0,0,0,17.921-7.581,22.562,22.562,0,0,0,1.7-8.844,18.225,18.225,0,0,0-1.619-7.889" transform="translate(-575.422 -9.61)" fill="#fff"/>
  <path id="Path_26" data-name="Path 26" d="M727.281,135.981a10.859,10.859,0,0,1-.8,4.438,5.127,5.127,0,0,1-9.715-.558,5.85,5.85,0,0,1,.029-2.174c.02-.138.19-1.164.355-.553a4.957,4.957,0,0,0,4.37,3.345,5.092,5.092,0,0,0,5.212-3.734,9.609,9.609,0,0,0-3.062-4.656c-.39-.371-.785-.739-1.194-1.088a1,1,0,0,0-1.152-.289.462.462,0,0,0-.213.43,35.57,35.57,0,0,1,.011,3.663c-.068.588-.177,1.2-.276.553a35.022,35.022,0,0,1-.295-4.749,4.608,4.608,0,0,1,.563-2.744c.466-.568,1.011-.482,1.526-.037,2.615,2.288,4.735,4.434,4.641,8.151" transform="translate(-642.903 -114.347)" fill="#fff"/>
  <path id="Path_27" data-name="Path 27" d="M428.86,183.6c-2.622-1.272-5.2.916-6.509,3.053-.765,1.247-1.344,2.6-2.052,3.881a27.4,27.4,0,0,1-2.394,3.65c-3.468,4.42-9.313,7.8-14.993,5.867a9.272,9.272,0,0,1-5.906-5.714c-.069-.206-.19.175-.184.156a3.785,3.785,0,0,0-.126.947,5.34,5.34,0,0,0,.13,1.956,9.363,9.363,0,0,0,4.906,5.372,11.116,11.116,0,0,0,8.083.421,16.3,16.3,0,0,0,7.205-4.814,33.808,33.808,0,0,0,4.674-7.358,9.434,9.434,0,0,1,2.955-3.774,4.247,4.247,0,0,1,4.151-.472c.159.077.262-1.469.265-1.583a7.315,7.315,0,0,0-.049-1.124c-.017-.13-.024-.4-.157-.468" transform="translate(-355.837 -164.364)" fill="#fff"/>
  <path id="Path_28" data-name="Path 28" d="M437.918,24.272a6.1,6.1,0,0,0-2.739-2.279c-2.676-1.118-5.764-.143-8.023,1.441-2.42,1.693-4.212,4.075-6.119,6.288A24.542,24.542,0,0,1,417.763,33a5.553,5.553,0,0,1-3.705,1.5,3.374,3.374,0,0,1-2.2-1.157,2.022,2.022,0,0,1-.212-.36.84.84,0,0,1-.063-.551c.031-.135.062-.266.081-.352a16.671,16.671,0,0,1,2.748-5.67,14.638,14.638,0,0,1,5-4.616c.329-.171.235-1.286.234-1.588,0-.111-.118-1.647-.242-1.588a15.036,15.036,0,0,0-5.124,4.735,16.508,16.508,0,0,0-2.73,5.67.385.385,0,0,1-.012.046l-.009.033a15.234,15.234,0,0,0-.5,5.115,3.677,3.677,0,0,0,.917,2.47,3.54,3.54,0,0,0,2.232,1,5.907,5.907,0,0,0,3.688-1.629c4.54-3.692,7.448-10.565,13.9-11.3a6.5,6.5,0,0,1,4.454,1.01l.014.01a.836.836,0,0,1-.273,1.49c-4.426,1.146-7.65,5.18-10.56,8.534-3.294,3.8-8.057,8.222-13.569,6.535a5.381,5.381,0,0,1-2.835-2,6.122,6.122,0,0,1-.787-1.511,6.277,6.277,0,0,1-.243-.9c-.015-.081-.028-.161-.04-.242a.2.2,0,0,0-.005-.055c0-.054-.014-.179-.021-.232a.75.75,0,0,1-.005-.082c0-.341-.022-1.118-.28-1.012-.124.051-.149.672-.156.743a8.573,8.573,0,0,0-.043,1.249c.095,2.367.595,4.861,2.584,6.382,2.126,1.627,5.17,1.468,7.561.584,5.41-2,8.328-7.432,12.352-11.188,2.323-2.166,5.247-3.88,8.507-3.88.043,0,.081-.044.115-.122a.088.088,0,0,0,.06.03c.259,0,.26-1.5.262-1.585a7.348,7.348,0,0,0-.926-4.235" transform="translate(-365.465 -16.698)" fill="#fff"/>
  <path id="Path_29" data-name="Path 29" d="M561.186,16.921q-.249-1.174-.515-2.345c.441-.734.908-1.742.772-1.853a6.485,6.485,0,0,1-1.75-2.189q-.164-.634-.331-1.267c-.081-.309-.714.743-.76.823a9.015,9.015,0,0,0-.515,1l-.009.02a1.892,1.892,0,0,0-.237.647.274.274,0,0,0,.007.089c.01.037.02.075.03.112a4.6,4.6,0,0,0,.126.478,162.832,162.832,0,0,1,4.668,27.27q.346,4.007.494,8.029c.011.3,1.132-.321,1.363-4.053a226.746,226.746,0,0,0-3.341-26.762" transform="translate(-500.422 -8.262)" fill="#fff"/>
  <path id="Path_30" data-name="Path 30" d="M836.919,191.581a2.243,2.243,0,0,0,.05-.634c-.006-.041-.018-.229-.1-.129a8.4,8.4,0,0,0-1.424,2.521,6.72,6.72,0,0,0-.309,1.235c-.035.226-.138.693.016.908.186.26.808.086,1.072.064a1.363,1.363,0,0,1,.9.153c-.007.008-.022.013-.024.025-.183,1.562-3.448,2.452-2.083,2.257,1.614-.232,2.265-.206,2.7-1.89.176-.689.579-2.162-.329-2.553a1.839,1.839,0,0,0-.9-.056c-.119.012-.287.046-.453.056a8.026,8.026,0,0,1,.52-.7,2.8,2.8,0,0,0,.36-1.256" transform="translate(-748.774 -171.151)" fill="#fff"/>
  <path id="Path_31" data-name="Path 31" d="M674.444,2.136h0c.06-.274-.055-.344-.092-.367A8.722,8.722,0,0,0,672,.754c-.083-.017-.317.006-.943.366A8.739,8.739,0,0,0,669.485,2.3a.837.837,0,0,0-.2.232.774.774,0,0,0,.292-.113,3.112,3.112,0,0,1,1.424-.515.905.905,0,0,1,.2.021,5.1,5.1,0,0,1,1.029.391c.58.278.679.4.654.515l-.006.033-.028.02a4.623,4.623,0,0,1-1.309.586l-1.109.353c-.434.19-.491.309-.5.339,0,.009-.007.036.1.059a1.511,1.511,0,0,0,.515-.02,6.523,6.523,0,0,0,3.512-1.333,1.562,1.562,0,0,0,.381-.734" transform="translate(-600.4 -0.672)" fill="#fff"/>
  <path id="Path_32" data-name="Path 32" d="M683.761,243.955c-1.029,1.453-1.584,6.25,1.078,5.764,1.194-.217,1.221-1.853,1.132-2.377-.738,1.305-1.818,1.45-2.332.551-.638-1.252-.033-2.779.119-3.943" transform="translate(-612.617 -218.84)" fill="#fff"/>
  <path id="Path_33" data-name="Path 33" d="M398.614,108.1c-1.192,1.527-2.254,6.955.5,6.761,1.235-.087,1.432-1.956,1.392-2.573-.881,1.4-1.994,1.422-2.422.32-.521-1.522.251-3.191.526-4.507" transform="translate(-356.475 -96.973)" fill="#fff"/>
  <path id="Path_34" data-name="Path 34" d="M638.036,336.85c-.833,1.181-1.288,5.08.877,4.686.97-.176.991-1.5.916-1.932-.6,1.063-1.473,1.182-1.89.45-.515-1.017-.027-2.256.1-3.2" transform="translate(-571.743 -302.178)" fill="#fff"/>
  <path id="Path_35" data-name="Path 35" d="M612.356.054a.286.286,0,0,0-.309-.024q-.2.128-.412.281a.138.138,0,0,0-.066.1.146.146,0,0,0,.052.113,4.784,4.784,0,0,1,1.288,2.059A5.2,5.2,0,0,1,613.1,3.9a.051.051,0,0,0,.035,0,5.372,5.372,0,0,0,.236-1.093A2.96,2.96,0,0,0,612.356.054" transform="translate(-548.621 0.004)" fill="#fff"/>
  <path id="Path_36" data-name="Path 36" d="M492.734,273.169a5.871,5.871,0,0,0-.3.618l-.041.094-.065.15q1.463-.806,3.1-1.684c1.243-.671,2.529-1.365,3.77-2.052l.849-.469a.8.8,0,0,0,.32-.329l.02-.037.031-.061a7.55,7.55,0,0,0,.332-.688c.015-.034.03-.068.045-.1.032-.072.065-.145.093-.217-1.158.643-2.387,1.338-3.578,2.016-1.248.707-2.426,1.375-3.486,1.963l-.739.412a.794.794,0,0,0-.323.336h0c-.011.023-.022.042-.029.055" transform="translate(-441.654 -240.764)" fill="#fff"/>
  <path id="Path_37" data-name="Path 37" d="M826.818,340.827a5.409,5.409,0,0,0-.206.515l-.028.078c-.015.041-.03.083-.044.125q1.132-.731,2.408-1.53c.965-.61,1.964-1.241,2.926-1.864l.659-.426a.639.639,0,0,0,.241-.284.081.081,0,0,1,.014-.03c.005-.01.015-.039.021-.051.08-.172.158-.364.23-.572l.03-.085c.023-.06.044-.121.063-.181-.9.584-1.853,1.214-2.779,1.825-.966.639-1.879,1.243-2.7,1.777l-.573.371a.648.648,0,0,0-.242.288h0l-.02.046" transform="translate(-741.464 -301.882)" fill="#fff"/>
  <path id="Path_38" data-name="Path 38" d="M3.132,450.73v-5.443a1.778,1.778,0,0,0-.127-.731q-.126-.276-.579-.277H2.22v-.206h4.3a1,1,0,0,1,.535.116.618.618,0,0,1,.252.3,1.1,1.1,0,0,1,.07.388v.755H7.172a1.1,1.1,0,0,0-.327-.882,1.4,1.4,0,0,0-.934-.277H4.04V447.1H6.762v.4H4.04v2.822H5.805a2.012,2.012,0,0,0,1.084-.252,1.679,1.679,0,0,0,.63-.856l.206.05-.353.957a.744.744,0,0,1-.267.369.811.811,0,0,1-.489.136Z" transform="translate(-1.991 -398.363)" fill="#fff"/>
  <path id="Path_39" data-name="Path 39" d="M119.642,450.746V445.3a1.778,1.778,0,0,0-.127-.731c-.084-.184-.277-.277-.579-.277h-.206v-.206h2.642a4.351,4.351,0,0,1,2.985.887,3.047,3.047,0,0,1,.983,2.4,3.544,3.544,0,0,1-.419,1.739,2.942,2.942,0,0,1-1.235,1.2,4.35,4.35,0,0,1-2.042.433Zm1.966-.353a2.528,2.528,0,0,0,1.338-.362,2.566,2.566,0,0,0,.943-1.029,3.74,3.74,0,0,0,.005-3.139,2.6,2.6,0,0,0-.939-1.039,2.53,2.53,0,0,0-1.371-.373,3.133,3.133,0,0,0-.48.04,3.97,3.97,0,0,0-.529.121v5.654c.135.027.26.05.378.07s.233.036.344.045S121.514,450.393,121.608,450.393Z" transform="translate(-106.509 -398.379)" fill="#fff"/>
  <path id="Path_40" data-name="Path 40" d="M252.139,450.847a1.454,1.454,0,0,1-.63-.136,1.8,1.8,0,0,1-.565-.454,6.233,6.233,0,0,1-.61-.872l-1.009-1.714h-.705v3.075h-.908V445.3a1.778,1.778,0,0,0-.127-.731c-.084-.184-.277-.277-.579-.277H246.8v-.206h2.622c.169,0,.363.012.586.035a3.667,3.667,0,0,1,.67.137,2.162,2.162,0,0,1,.626.3,1.537,1.537,0,0,1,.464.525,1.667,1.667,0,0,1,.176.806,1.56,1.56,0,0,1-.247.926,1.626,1.626,0,0,1-.618.529,3.666,3.666,0,0,1-.746.272l1.059,1.764a3.25,3.25,0,0,0,.687.882,1.3,1.3,0,0,0,.675.277v.206a.949.949,0,0,1-.247.07,2.024,2.024,0,0,1-.367.027Zm-3.519-3.527h.721a1.726,1.726,0,0,0,.494-.081,1.948,1.948,0,0,0,.525-.247,1.308,1.308,0,0,0,.412-.439,1.449,1.449,0,0,0,0-1.33,1.376,1.376,0,0,0-.412-.444,1.908,1.908,0,0,0-.525-.252,1.76,1.76,0,0,0-.494-.08,2.665,2.665,0,0,0-.368.03,3.315,3.315,0,0,0-.357.071Z" transform="translate(-221.397 -398.379)" fill="#fff"/>
  <path id="Path_41" data-name="Path 41" d="M370.571,450.833a2.208,2.208,0,0,1-.544-.085,1.576,1.576,0,0,1-.635-.363,2.208,2.208,0,0,1-.535-.861l-.252-.656h-2.823l-.807,1.916h-.454l2.829-6.652h.3l2.218,5.393a2.674,2.674,0,0,0,.464.792,1.009,1.009,0,0,0,.645.267v.206c-.053.013-.116.025-.186.035A1.52,1.52,0,0,1,370.571,450.833Zm-4.639-2.367h2.47l-1.209-2.923Z" transform="translate(-327 -398.415)" fill="#fff"/>
  <path id="Path_42" data-name="Path 42" d="M491.016,450.836a2.244,2.244,0,0,1-.595-.091,2.471,2.471,0,0,1-.706-.353,5.82,5.82,0,0,1-.868-.766l-2.118-2.217v3.326h-.907v-5.443a1.777,1.777,0,0,0-.127-.731c-.084-.184-.277-.277-.579-.277h-.206v-.206h.908a1.36,1.36,0,0,1,.55.091.533.533,0,0,1,.277.353,2.778,2.778,0,0,1,.08.766v1.972l2.118-2.117.494-.494a2.446,2.446,0,0,1,.53-.4,1.4,1.4,0,0,1,.691-.162h.5v.252a1.731,1.731,0,0,0-.732.146,2.76,2.76,0,0,0-.731.559l-1.967,1.966,2.324,2.414a7.794,7.794,0,0,0,.58.524,3.675,3.675,0,0,0,.591.4,1.751,1.751,0,0,0,.545.2v.191a1.75,1.75,0,0,1-.268.07A2.045,2.045,0,0,1,491.016,450.836Z" transform="translate(-434.998 -398.368)" fill="#fff"/>
  <path id="Path_43" data-name="Path 43" d="M624.546,451.235a2.344,2.344,0,0,1-1.132-.226,1.216,1.216,0,0,1-.569-.705,3.926,3.926,0,0,1-.162-1.235v-3.88l-2.522,5.594h-.206l-2.623-5.7v5.7h-.4V444.13h.957l2.421,5.241,2.367-5.241h.908v4.941a3.644,3.644,0,0,0,.232,1.441.766.766,0,0,0,.727.525Z" transform="translate(-553.429 -398.415)" fill="#fff"/>
  <path id="Path_44" data-name="Path 44" d="M754.634,450.818a3.049,3.049,0,0,1-1.544-.332,1.8,1.8,0,0,1-.8-.993,5.027,5.027,0,0,1-.232-1.647v-2.573a1.777,1.777,0,0,0-.127-.731c-.084-.184-.277-.277-.58-.277h-.206v-.206h.911a1.361,1.361,0,0,1,.55.091.533.533,0,0,1,.277.353,2.769,2.769,0,0,1,.081.766v2.873a3.035,3.035,0,0,0,.393,1.663,1.527,1.527,0,0,0,1.392.6,2.332,2.332,0,0,0,1.221-.272,1.511,1.511,0,0,0,.635-.842,4.651,4.651,0,0,0,.191-1.456v-3.773h.407v3.78a5.468,5.468,0,0,1-.212,1.647,1.727,1.727,0,0,1-.766.993A3.139,3.139,0,0,1,754.634,450.818Z" transform="translate(-673.834 -398.35)" fill="#fff"/>
  <path id="Path_45" data-name="Path 45" d="M880.773,500.556a.524.524,0,0,1-.384-.162.534.534,0,0,1-.161-.393.549.549,0,0,1,.545-.543.514.514,0,0,1,.388.161.553.553,0,0,1,0,.776.522.522,0,0,1-.388.162Z" transform="translate(-789.627 -448.048)" fill="#fff"/>
  <path id="Path_46" data-name="Path 46" d="M960.464,449.253a2.961,2.961,0,0,1-1.659-.459,3.056,3.056,0,0,1-1.084-1.235,3.863,3.863,0,0,1-.384-1.729,4.094,4.094,0,0,1,.242-1.415,3.619,3.619,0,0,1,.676-1.155,3.257,3.257,0,0,1,1-.775,2.67,2.67,0,0,1,1.21-.283,3.962,3.962,0,0,1,1.441.237,2.111,2.111,0,0,1,.878.57,1.113,1.113,0,0,1,.221.644q.031.412.031.867h-.206a2.542,2.542,0,0,0-.711-1.451,1.947,1.947,0,0,0-1.357-.463,2.485,2.485,0,0,0-1.205.3,2.1,2.1,0,0,0-.882,1.008,4.629,4.629,0,0,0-.328,1.914,4.5,4.5,0,0,0,.136,1.1,3.078,3.078,0,0,0,.429.973,2.176,2.176,0,0,0,.751.69,2.221,2.221,0,0,0,1.1.257,2.292,2.292,0,0,0,1.3-.362,3.345,3.345,0,0,0,.969-1.049l.206.151a2.851,2.851,0,0,1-1.181,1.305A3.434,3.434,0,0,1,960.464,449.253Z" transform="translate(-858.798 -396.684)" fill="#fff"/>
  <path id="Path_47" data-name="Path 47" d="M1084.617,449.225a2.91,2.91,0,0,1-1.659-.469,3.1,3.1,0,0,1-1.084-1.269,4.362,4.362,0,0,1,0-3.579,3.094,3.094,0,0,1,1.084-1.269,3.167,3.167,0,0,1,3.318,0,3.1,3.1,0,0,1,1.084,1.269,4.373,4.373,0,0,1,0,3.579,3.1,3.1,0,0,1-1.083,1.269A2.912,2.912,0,0,1,1084.617,449.225Zm0-.4a1.757,1.757,0,0,0,1.139-.383,2.4,2.4,0,0,0,.727-1.084,5.571,5.571,0,0,0,0-3.315,2.4,2.4,0,0,0-.727-1.084,1.879,1.879,0,0,0-2.274,0,2.366,2.366,0,0,0-.732,1.084,5.575,5.575,0,0,0,0,3.315,2.367,2.367,0,0,0,.732,1.084A1.76,1.76,0,0,0,1084.617,448.822Z" transform="translate(-970.172 -396.657)" fill="#fff"/>
  <path id="Path_48" data-name="Path 48" d="M1221.617,451.235a2.365,2.365,0,0,1-1.132-.226,1.217,1.217,0,0,1-.57-.705,3.959,3.959,0,0,1-.161-1.235v-3.88l-2.521,5.594h-.206l-2.623-5.7v5.7h-.4V444.13h.958l2.421,5.241,2.367-5.241h.908v4.941a3.63,3.63,0,0,0,.233,1.441.763.763,0,0,0,.721.525Z" transform="translate(-1089.043 -398.415)" fill="#fff"/>
  <path id="Path_49" data-name="Path 49" d="M3.661,172.066a2.494,2.494,0,0,1-1.077.218c-.889,0-1.654-.452-1.654-1.338,0-.937.78-1.5,2.264-2.059l-.049-.479.7-.562H3.91l.437,3.513a.814.814,0,0,0,.327.639,2.352,2.352,0,0,0,1.093.156c.206,0,.309.172.309.5,0,.422-.187.547-.624.547C4.41,173.205,3.864,172.956,3.661,172.066Zm-1.374-4.558-.938-.671.593-.875.926.64Zm1.235,3.747L3.316,169.8a3.8,3.8,0,0,0-1.873.926,1.479,1.479,0,0,0,1.42.64,1.614,1.614,0,0,0,.657-.114Zm.344-3.747-.937-.671.593-.875.926.64Zm1.59,5.7.309-1.046h1.9c.235,0,.344.172.344.515s-.218.53-.656.53Zm1.9,0,.309-1.046h1.9c.235,0,.344.172.344.515s-.218.53-.656.53Zm1.9,0,.309-1.046h1.9c.235,0,.344.172.344.515s-.218.53-.656.53Zm4.745-6.416a3.28,3.28,0,0,0-.327.593v2.311a23.227,23.227,0,0,1-.25,3.512H11.167l.309-1.046h1.535c-.063-1.4-.141-3.59-.25-6.556l.78-.468.078.031a6.365,6.365,0,0,0,.172.811,4.192,4.192,0,0,0,.218.766Zm1.436,5.044L15.2,165.6l.858-.468.078.031v5.745c0,.547.109.889.309,1.029a2.19,2.19,0,0,0,1.155.218c.206,0,.309.172.309.5,0,.422-.187.547-.625.547-1.2,0-1.8-.453-1.83-1.373Zm1.842,1.373.309-1.046h1.9c.235,0,.344.172.344.515s-.218.53-.656.53Zm1.9,0,.309-1.046h1.905c.234,0,.343.172.343.515s-.218.53-.656.53Zm1.9,0,.309-1.046H22.56a6.943,6.943,0,0,0,.206-1.467l1.029-.8.046.047a7.213,7.213,0,0,1-.593,2.107,1.223,1.223,0,0,0,.515.109c.343.063.8-.266,1.217-.608.11-.094.309-.266.594-.5s.53-.452.734-.624a4.487,4.487,0,0,1,2.528-1.3,1.6,1.6,0,0,1,1.311.7,2.44,2.44,0,0,1,.547,1.515,4.948,4.948,0,0,1-.437,1.853H24.1a1.971,1.971,0,0,1-1.3-.375,3.929,3.929,0,0,1-.327.375Zm8.82-1.046a2.187,2.187,0,0,0,.046-.5,1.44,1.44,0,0,0-1.279-1.468,1.994,1.994,0,0,0-.921.266,6.921,6.921,0,0,0-.983.64c-.407.309-.531.39-.937.734-.206.171-.344.281-.412.327Zm1.249-7.228a1.456,1.456,0,0,1,.721-.937c-.391-.14-.578-.358-.578-.656a1.294,1.294,0,0,1,1.235-1.31c.3,0,.484.046.546.14l-.281.562a1.2,1.2,0,0,0-.5-.109.621.621,0,0,0-.656.484c0,.125.187.375,1.124.375a3.966,3.966,0,0,0,.562-.047l.015.032-.218.608a2.963,2.963,0,0,0-1.936.89Zm1.015,8.43-.3-7.758.859-.469.078.031v6.056a7.72,7.72,0,0,1-.328,2.17ZM37,170.241a3.831,3.831,0,0,1,.531,1.9,3.951,3.951,0,0,1-.688,2.4,2.038,2.038,0,0,1-1.67.921,2.256,2.256,0,0,1-.875-.218,2.4,2.4,0,0,1-.721-.422l.221-.451a3.661,3.661,0,0,0,1.093.187,1.924,1.924,0,0,0,1.872-1.608,2.6,2.6,0,0,1-1.092.187,1.957,1.957,0,0,1-1.139-.3.99.99,0,0,1-.453-.9,3.131,3.131,0,0,1,.547-1.7c.717-1.113,1.7-1.113,2.373,0Zm-1.155,1.935a2.684,2.684,0,0,0,.968-.155c-.109-1.015-.593-1.577-1.093-1.577a.826.826,0,0,0-.608.406,1.3,1.3,0,0,0-.3.8c0,.357.343.529,1.03.529Z" transform="translate(-0.834 -145.352)" fill="#fff"/>
  <text id="_ٌ" data-name="ٌ" transform="translate(95.83 22.668)" fill="#fff" font-size="12" font-family="Amariya"><tspan x="0" y="0">ٌ</tspan></text>
  <path id="Path_50" data-name="Path 50" d="M930.88,207.68c0,.422-.187.547-.625.547a1.445,1.445,0,0,1-1.468-.968,2.63,2.63,0,0,1-2.367,1.077c-.937,0-1.56-.327-1.56-1.029a3.747,3.747,0,0,1,.171-.874l.328.063a.541.541,0,0,0-.015.187c0,.39.39.577,1.17.577,1.42,0,2.108-.5,1.842-1.109l-1.078-2.451.671-.811h.063q1.338,3.4,1.405,3.558a1.041,1.041,0,0,0,1.155.734C930.77,207.181,930.88,207.353,930.88,207.68Zm-.625.547.309-1.046h1.9c.235,0,.344.172.344.515s-.218.53-.656.53Zm1.9,0,.309-1.046h1.905c.234,0,.343.172.343.515s-.218.53-.656.53Zm1.9,0,.309-1.046h1.905c.234,0,.343.172.343.515s-.218.53-.656.53Zm1.9,0,.309-1.046h1.9c.234,0,.343.172.343.515s-.218.53-.655.53Zm1.9,0,.309-1.046h1.9c.234,0,.344.172.344.515s-.219.53-.656.53Zm1.905,0,.309-1.046h1.9c.235,0,.344.172.344.515s-.219.53-.656.53Zm1.9,0,.309-1.046h1.9c.235,0,.344.172.344.515s-.219.53-.656.53Zm1.9,0,.309-1.046h1.9c.235,0,.344.172.344.515s-.218.53-.656.53Zm1.9,0,.309-1.046h1.9c.235,0,.344.172.344.515s-.218.53-.656.53Zm1.9,0,.309-1.046h1.905c.234,0,.343.172.343.515s-.218.53-.656.53Zm9.676-4.355a4.629,4.629,0,0,1,.858,2.514,6.549,6.549,0,0,1-.344,1.841h-1.967a1.344,1.344,0,0,1-1.249-.8,5.422,5.422,0,0,1-.64.8h-.843a1.324,1.324,0,0,1-1.249-.8,3.345,3.345,0,0,1-.608.8H949.3l.309-1.046h1.531a5,5,0,0,0,.218-1.577l1-.687.046.047a7.751,7.751,0,0,1-.453,1.8,1.136,1.136,0,0,0,1.015.421h.823a5.446,5.446,0,0,0,.375-1.811l.983-.437.063.047a6.032,6.032,0,0,1-.5,1.78,1.024,1.024,0,0,0,.983.421h1.53a4.191,4.191,0,0,0-.889-2.435l.671-.874Zm-2.42-.823-.577.906-.937-.671.593-.875Zm.687-1.338-.593.921-.937-.671.577-.89Zm-.624,1.577.593-.875.926.64-.577.906Zm3.231,6.571.218-.452a3.658,3.658,0,0,0,1.093.187,2.416,2.416,0,0,0,1.5-.64,1.87,1.87,0,0,0,.78-1.4,1.547,1.547,0,0,0-.375-.937q-.257-.351-.375-.515c-.078-.11-.266-.344-.547-.7l.593-1.015h.047a5.378,5.378,0,0,1,1.218,3.045,3.224,3.224,0,0,1-.765,2.153,2.3,2.3,0,0,1-1.8.921,3.136,3.136,0,0,1-1.589-.648Z" transform="translate(-829.664 -180.373)" fill="#fff"/>
  <rect id="Rectangle_33" data-name="Rectangle 33" width="40.333" height="0.428" transform="translate(0 36.908)" fill="#fff"/>
  <rect id="Rectangle_34" data-name="Rectangle 34" width="40.333" height="0.428" transform="translate(92.267 36.908)" fill="#fff"/>
</svg>
